<svg id="visual" viewBox="0 0 900 600" width="900" height="600" xmlns="http://www.w3.org/2000/svg" xmlns:xlink="http://www.w3.org/1999/xlink" version="1.1"><rect x="0" y="0" width="900" height="600" fill="#eee"></rect><path d="M83 0L300 20L382 40L89 60L534 80L188 100L168 120L108 140L388 160L235 180L335 200L203 220L275 240L115 260L157 280L476 300L46 320L380 340L532 360L72 380L350 400L483 420L507 440L117 460L501 480L142 500L372 520L87 540L188 560L321 580L196 600" fill="none" stroke-linecap="square" stroke-linejoin="bevel" stroke="#132257" stroke-width="40"></path></svg>