<svg id="visual" viewBox="0 0 960 540" width="960" height="540" xmlns="http://www.w3.org/2000/svg" xmlns:xlink="http://www.w3.org/1999/xlink" version="1.1"><g stroke-width="1" stroke-linejoin="bevel"><path d="M528 294L662 181L442 126Z" fill="#d7554c" stroke="#d7554c"></path><path d="M662 181L562 0L442 126Z" fill="#d7554c" stroke="#d7554c"></path><path d="M662 181L687 0L562 0Z" fill="#a80c15" stroke="#a80c15"></path><path d="M528 294L726 385L662 181Z" fill="#9e0916" stroke="#9e0916"></path><path d="M662 181L960 112L687 0Z" fill="#8b0616" stroke="#8b0616"></path><path d="M237 0L276 87L442 126Z" fill="#950716" stroke="#950716"></path><path d="M442 126L228 340L528 294Z" fill="#8b0616" stroke="#8b0616"></path><path d="M276 87L228 340L442 126Z" fill="#9e0916" stroke="#9e0916"></path><path d="M528 294L417 540L726 385Z" fill="#8b0616" stroke="#8b0616"></path><path d="M562 0L237 0L442 126Z" fill="#c1251f" stroke="#c1251f"></path><path d="M276 87L0 257L228 340Z" fill="#950716" stroke="#950716"></path><path d="M228 340L417 540L528 294Z" fill="#c1251f" stroke="#c1251f"></path><path d="M228 340L337 540L417 540Z" fill="#9e0916" stroke="#9e0916"></path><path d="M960 296L960 112L662 181Z" fill="#a80c15" stroke="#a80c15"></path><path d="M417 540L776 540L726 385Z" fill="#950716" stroke="#950716"></path><path d="M726 385L960 296L662 181Z" fill="#c1251f" stroke="#c1251f"></path><path d="M960 540L960 296L726 385Z" fill="#bb1212" stroke="#bb1212"></path><path d="M960 112L960 0L687 0Z" fill="#c1251f" stroke="#c1251f"></path><path d="M776 540L960 540L726 385Z" fill="#cd3f36" stroke="#cd3f36"></path><path d="M0 0L0 257L276 87Z" fill="#c7332a" stroke="#c7332a"></path><path d="M228 340L0 540L337 540Z" fill="#d7554c" stroke="#d7554c"></path><path d="M237 0L0 0L276 87Z" fill="#c7332a" stroke="#c7332a"></path><path d="M0 257L0 376L228 340Z" fill="#a80c15" stroke="#a80c15"></path><path d="M0 376L0 540L228 340Z" fill="#d24a41" stroke="#d24a41"></path></g></svg>