<svg id="visual" viewBox="0 0 900 600" width="900" height="600" xmlns="http://www.w3.org/2000/svg" xmlns:xlink="http://www.w3.org/1999/xlink" version="1.1"><rect width="900" height="600" fill="#931F1F"></rect><g><g transform="translate(723 274)"><path d="M80.9 1.2C80.9 44.2 40.5 88.4 4.4 88.4C-31.7 88.4 -63.3 44.2 -63.3 1.2C-63.3 -41.8 -31.7 -83.7 4.4 -83.7C40.5 -83.7 80.9 -41.8 80.9 1.2Z" fill="none" stroke="#F7760E" stroke-width="20"></path></g><g transform="translate(78 168)"><path d="M85.7 -3.5C85.7 35.1 42.9 70.1 6.1 70.1C-30.7 70.1 -61.4 35.1 -61.4 -3.5C-61.4 -42.1 -30.7 -84.2 6.1 -84.2C42.9 -84.2 85.7 -42.1 85.7 -3.5Z" fill="none" stroke="#F7760E" stroke-width="20"></path></g><g transform="translate(479 40)"><path d="M76.5 0.2C76.5 34.1 38.3 68.3 4.8 68.3C-28.8 68.3 -57.5 34.1 -57.5 0.2C-57.5 -33.8 -28.8 -67.5 4.8 -67.5C38.3 -67.5 76.5 -33.8 76.5 0.2Z" fill="none" stroke="#F7760E" stroke-width="20"></path></g><g transform="translate(129 529)"><path d="M81.9 5.3C81.9 38.3 41 76.7 5.5 76.7C-29.9 76.7 -59.8 38.3 -59.8 5.3C-59.8 -27.7 -29.9 -55.3 5.5 -55.3C41 -55.3 81.9 -27.7 81.9 5.3Z" fill="none" stroke="#F7760E" stroke-width="20"></path></g><g transform="translate(667 577)"><path d="M75.6 3.7C75.6 34.5 37.8 69.1 4.7 69.1C-28.4 69.1 -56.8 34.5 -56.8 3.7C-56.8 -27.1 -28.4 -54.3 4.7 -54.3C37.8 -54.3 75.6 -27.1 75.6 3.7Z" fill="none" stroke="#F7760E" stroke-width="20"></path></g><g transform="translate(386 361)"><path d="M60 0C60 23.7 30 47.5 -0.9 47.5C-31.8 47.5 -63.7 23.7 -63.7 0C-63.7 -23.7 -31.8 -47.4 -0.9 -47.4C30 -47.4 60 -23.7 60 0Z" fill="none" stroke="#F7760E" stroke-width="20"></path></g></g></svg>